# Blender 3.4.1
# www.blender.org
mtllib model3.mtl.mtl
o Cube
v -23.511093 34.756962 41.622101
v -25.000000 39.672947 43.828560
v -23.511093 34.756962 -41.622101
v -25.000000 39.672947 -43.828560
v 23.511093 34.756962 41.622101
v 25.000000 39.672947 43.828560
v 23.511093 34.756962 -41.622101
v 25.000000 39.672947 -43.828560
v -23.511093 34.756962 35.619606
v 23.511093 34.756962 35.619606
v -20.619604 34.756962 -41.622101
v 20.619604 34.756962 41.622101
v 20.619604 34.756962 35.619606
v -20.619604 34.756962 41.622101
v 25.000000 33.265312 43.828560
v 23.511093 34.756962 -35.619606
v -20.619604 34.756962 35.619606
v -23.511093 34.756962 -35.619606
v -25.000000 33.265312 43.828560
v -20.619604 34.756962 -35.619606
v 20.619604 34.756962 -41.622101
v -25.000000 33.265312 -43.828560
v 20.619604 34.756962 -35.619606
v 25.000000 33.265312 -43.828560
v 20.619604 0.084978 41.622101
v 23.511093 0.084978 41.622101
v 23.511093 0.084978 35.619606
v 20.619604 0.084978 35.619606
v -23.511093 0.084978 35.619606
v -23.511093 0.084978 41.622101
v -20.619604 0.084978 35.619606
v -20.619604 0.084978 41.622101
v -20.619604 0.084978 -41.622101
v -23.511093 0.084978 -41.622101
v -23.511093 0.084978 -35.619606
v -20.619604 0.084978 -35.619606
v 23.511093 0.084978 -35.619606
v 23.511093 0.084978 -41.622101
v 20.619604 0.084978 -41.622101
v 20.619604 0.084978 -35.619606
vn -1.0000 -0.0000 -0.0000
vn 1.0000 -0.0000 -0.0000
vn -0.0000 -0.0000 1.0000
vn -0.0000 -1.0000 -0.0000
vn -0.0000 -0.0000 -1.0000
vn -0.0000 1.0000 -0.0000
vt 0.143750 0.739305
vt 0.000000 0.000000
vt 0.143750 0.510695
vt 0.000000 0.000000
vt 0.356250 0.739305
vt 0.000000 0.000000
vt 0.356250 0.510695
vt 0.000000 0.000000
vt 0.143750 0.635695
vt 0.356250 0.635695
vt 0.231250 0.510695
vt 0.268750 0.739305
vt 0.268750 0.635695
vt 0.231250 0.739305
vt 0.000000 0.000000
vt 0.356250 0.614305
vt 0.231250 0.635695
vt 0.143750 0.614305
vt 0.000000 0.000000
vt 0.231250 0.614305
vt 0.268750 0.510695
vt 0.000000 0.000000
vt 0.268750 0.614305
vt 0.000000 0.000000
vt 0.268750 0.739305
vt 0.356250 0.739305
vt 0.356250 0.635695
vt 0.268750 0.635695
vt 0.143750 0.635695
vt 0.143750 0.739305
vt 0.231250 0.635695
vt 0.231250 0.739305
vt 0.231250 0.510695
vt 0.143750 0.510695
vt 0.143750 0.614305
vt 0.231250 0.614305
vt 0.356250 0.614305
vt 0.356250 0.510695
vt 0.268750 0.510695
vt 0.268750 0.614305
s 0
f 23/23/1 21/21/1 39/39/1 40/40/1
f 11/11/2 20/20/2 36/36/2 33/33/2
f 16/16/3 23/23/3 40/40/3 37/37/3
f 17/17/2 14/14/2 32/32/2 31/31/2
f 28/28/4 27/27/4 26/26/4 25/25/4
f 39/39/4 38/38/4 37/37/4 40/40/4
f 34/34/4 33/33/4 36/36/4 35/35/4
f 29/29/4 31/31/4 32/32/4 30/30/4
f 5/5/3 12/12/3 25/25/3 26/26/3
f 1/1/1 9/9/1 29/29/1 30/30/1
f 10/10/2 5/5/2 26/26/2 27/27/2
f 3/3/5 11/11/5 33/33/5 34/34/5
f 9/9/5 17/17/5 31/31/5 29/29/5
f 7/7/2 16/16/2 37/37/2 38/38/2
f 13/13/5 10/10/5 27/27/5 28/28/5
f 18/18/1 3/3/1 34/34/1 35/35/1
f 14/14/3 1/1/3 30/30/3 32/32/3
f 21/21/5 7/7/5 38/38/5 39/39/5
f 12/12/1 13/13/1 28/28/1 25/25/1
f 20/20/3 18/18/3 35/35/3 36/36/3
f 22/22/3 24/24/3 8/8/3 4/4/3
f 24/24/1 15/15/1 6/6/1 8/8/1
f 19/19/5 2/2/5 6/6/5 15/15/5
f 19/19/2 22/22/2 4/4/2 2/2/2
f 8/8/4 6/6/4 2/2/4 4/4/4
f 24/24/6 22/22/6 19/19/6 15/15/6
